<?xml version="1.0" encoding="utf-8"?>
<!-- Generator: Adobe Illustrator 24.0.0, SVG Export Plug-In . SVG Version: 6.00 Build 0)  -->
<svg version="1.1" id="Layer_1" xmlns="http://www.w3.org/2000/svg" xmlns:xlink="http://www.w3.org/1999/xlink" x="0px" y="0px"
	 viewBox="0 0 218 67" style="enable-background:new 0 0 218 67;" xml:space="preserve">
<style type="text/css">
	.st0{enable-background:new    ;}
</style>
<g class="st0">
	<path d="M0.9,25.1h1.9V9.7H0.9V7.1h6.4l6.4,17.5l6.5-17.5h6.1v2.6h-1.9v15.5h1.9v2.3h-6.6v-2.3H22V9.5l-7.1,17.9h-2.3l-7.2-18v15.6
		h2.1v2.3H0.9V25.1z"/>
	<path d="M39.1,27.8c-1.4,0-2.7-0.3-3.8-0.8c-1.2-0.5-2.2-1.3-3.1-2.2c-0.9-1-1.6-2.1-2.1-3.4c-0.5-1.3-0.7-2.7-0.7-4.1
		c0-1.5,0.2-2.8,0.7-4.1c0.5-1.3,1.1-2.4,2-3.4c0.9-1,1.9-1.7,3.1-2.3c1.2-0.5,2.5-0.8,3.9-0.8c1.4,0,2.8,0.3,4,0.8s2.2,1.3,3.1,2.3
		s1.5,2.1,2,3.4s0.7,2.7,0.7,4.1s-0.2,2.8-0.7,4.1c-0.5,1.3-1.1,2.4-2,3.4c-0.9,1-1.9,1.7-3.1,2.3C41.8,27.5,40.5,27.8,39.1,27.8z
		 M39.1,25.3c1.1,0,2-0.2,2.9-0.7c0.9-0.4,1.6-1,2.2-1.8c0.6-0.7,1.1-1.6,1.4-2.6c0.3-1,0.5-2,0.5-3.1c0-1.1-0.2-2.2-0.5-3.2
		c-0.4-1-0.9-1.9-1.5-2.6c-0.6-0.7-1.4-1.3-2.3-1.7S40,9.2,39.1,9.2c-1.1,0-2,0.2-2.9,0.7c-0.9,0.4-1.6,1-2.2,1.8
		c-0.6,0.7-1.1,1.6-1.4,2.6s-0.5,2-0.5,3.1c0,1.3,0.2,2.4,0.5,3.3c0.4,1,0.9,1.8,1.5,2.4c0.6,0.6,1.3,1.2,2.2,1.6
		C37,25.1,38,25.3,39.1,25.3z"/>
	<path d="M51.7,25.1h1.9V9.4h-1.9V7.1l9.1,0c0.8,0,1.6,0.2,2.3,0.5c0.7,0.3,1.4,0.7,1.9,1.3c0.5,0.5,1,1.2,1.3,1.9
		c0.3,0.7,0.5,1.5,0.5,2.3c0,0.9-0.2,1.7-0.7,2.4c-0.5,0.7-1.2,1.3-2.1,1.7c0.4,0.2,0.8,0.5,1.2,0.8s0.7,0.6,0.9,1
		c0.2,0.4,0.4,0.8,0.6,1.2s0.2,0.8,0.2,1.3c0,0.8-0.2,1.6-0.5,2.4c-0.3,0.7-0.7,1.4-1.3,1.9s-1.2,1-1.9,1.3
		c-0.7,0.3-1.5,0.5-2.3,0.5h-9.3V25.1z M56.2,9.4V16h4.6c0.4,0,0.8-0.1,1.2-0.3c0.4-0.2,0.7-0.4,1-0.7c0.3-0.3,0.5-0.6,0.6-1
		c0.2-0.4,0.2-0.8,0.2-1.2c0-0.4-0.1-0.9-0.2-1.3c-0.2-0.4-0.4-0.8-0.7-1.1c-0.3-0.3-0.6-0.6-1-0.8c-0.4-0.2-0.8-0.3-1.2-0.3H56.2z
		 M56.2,18.4v6.7H61c0.4,0,0.8-0.1,1.2-0.3c0.4-0.2,0.7-0.5,1-0.8c0.3-0.3,0.5-0.7,0.7-1.2c0.2-0.4,0.2-0.9,0.2-1.3
		c0-0.4-0.1-0.8-0.2-1.1c-0.2-0.4-0.4-0.7-0.7-1c-0.3-0.3-0.6-0.5-1-0.7c-0.4-0.2-0.8-0.3-1.2-0.3H56.2z"/>
	<path d="M69.8,7.1h6.5v2.3h-1.9v15.7h1.9v2.3h-6.5v-2.3h1.9V9.4h-1.9V7.1z"/>
	<path d="M80.1,7.1h6.6v2.3h-2v15.7h7c0.1,0,0.3,0,0.4-0.1c0.1-0.1,0.3-0.2,0.4-0.3s0.2-0.2,0.3-0.4c0.1-0.1,0.1-0.3,0.1-0.4v-2.6
		h2.5v6H80.1v-2.3H82V9.4h-1.9V7.1z"/>
	<path d="M97.5,7.1H112v5.8h-2.7V9.4H102v6.5h6.1v2.3H102v6.9h7.3v-3.4h2.7v5.7H97.5v-2.3h1.9V9.4h-1.9V7.1z"/>
</g>
<g class="st0">
	<path d="M0.9,40h7.6c0.9,0,1.8,0.1,2.7,0.4c0.8,0.2,1.6,0.6,2.3,1c0.7,0.4,1.4,1,2,1.6c0.6,0.6,1.1,1.3,1.5,2
		c0.4,0.8,0.7,1.6,1,2.4c0.2,0.9,0.3,1.8,0.3,2.7c0,0.9-0.1,1.9-0.3,2.7c-0.2,0.9-0.5,1.7-1,2.4s-0.9,1.5-1.5,2.1s-1.2,1.2-2,1.6
		c-0.7,0.4-1.5,0.8-2.3,1c-0.8,0.2-1.7,0.4-2.7,0.4H0.9V58h1.9V42.3H0.9V40z M5.5,42.3V58h3.2c0.9,0,1.8-0.2,2.6-0.6
		c0.8-0.4,1.5-1,2.2-1.7c0.6-0.7,1.1-1.5,1.5-2.5s0.5-2,0.5-3.1c0-1.1-0.2-2.1-0.5-3.1s-0.8-1.8-1.5-2.5c-0.6-0.7-1.3-1.3-2.2-1.7
		s-1.7-0.6-2.6-0.6H5.5z"/>
	<path d="M21.1,40h14.6v5.8h-2.7v-3.4h-7.3v6.5h6.1v2.3h-6.1V58h7.3v-3.4h2.7v5.7H21.1V58H23V42.3h-1.9V40z"/>
	<path d="M50,40h6.6v2.3h-1.8l-6.6,18h-3.7l-6.5-18h-1.8V40h6.6v2.3h-1.8L46.3,58l5.6-15.7H50V40z"/>
	<path d="M58.3,40h14.6v5.8h-2.7v-3.4h-7.3v6.5h6.1v2.3h-6.1V58h7.3v-3.4h2.7v5.7H58.3V58h1.9V42.3h-1.9V40z"/>
	<path d="M75.5,40h6.6v2.3h-2V58h7c0.1,0,0.3,0,0.4-0.1c0.1-0.1,0.3-0.2,0.4-0.3s0.2-0.2,0.3-0.4c0.1-0.1,0.1-0.3,0.1-0.4v-2.6h2.5
		v6H75.5V58h1.9V42.3h-1.9V40z"/>
	<path d="M101.7,60.7c-1.4,0-2.7-0.3-3.8-0.8c-1.2-0.5-2.2-1.3-3.1-2.2c-0.9-1-1.6-2.1-2.1-3.4c-0.5-1.3-0.7-2.7-0.7-4.1
		c0-1.5,0.2-2.8,0.7-4.1c0.5-1.3,1.1-2.4,2-3.4c0.9-1,1.9-1.7,3.1-2.3c1.2-0.5,2.5-0.8,3.9-0.8c1.4,0,2.8,0.3,4,0.8s2.2,1.3,3.1,2.3
		s1.5,2.1,2,3.4s0.7,2.7,0.7,4.1s-0.2,2.8-0.7,4.1s-1.1,2.4-2,3.4c-0.9,1-1.9,1.7-3.1,2.3C104.4,60.4,103.1,60.7,101.7,60.7z
		 M101.7,58.2c1.1,0,2-0.2,2.9-0.7c0.9-0.4,1.6-1,2.2-1.8c0.6-0.7,1.1-1.6,1.4-2.6c0.3-1,0.5-2,0.5-3.1c0-1.1-0.2-2.2-0.5-3.2
		c-0.4-1-0.9-1.9-1.5-2.6c-0.6-0.7-1.4-1.3-2.3-1.7s-1.8-0.6-2.7-0.6c-1.1,0-2,0.2-2.9,0.7c-0.9,0.4-1.6,1-2.2,1.8
		c-0.6,0.7-1.1,1.6-1.4,2.6s-0.5,2-0.5,3.1c0,1.3,0.2,2.4,0.5,3.3c0.4,1,0.9,1.8,1.5,2.4c0.6,0.6,1.3,1.2,2.2,1.6
		C99.7,58,100.6,58.2,101.7,58.2z"/>
	<path d="M114.3,40h8.2c0.9,0,1.7,0.1,2.5,0.4c0.8,0.2,1.4,0.6,2,1c0.6,0.5,1,1,1.3,1.7s0.5,1.5,0.5,2.4c0,0.7-0.2,1.4-0.5,2.1
		s-0.7,1.2-1.3,1.7s-1.2,0.9-2,1.2c-0.8,0.3-1.6,0.4-2.6,0.4h-3.6V58h2v2.3h-6.6V58h1.9V42.3h-1.9V40z M118.8,42.3v6.4h3.7
		c0.5,0,1-0.1,1.4-0.2c0.4-0.1,0.8-0.3,1.1-0.6c0.3-0.3,0.5-0.6,0.7-1c0.2-0.4,0.3-0.9,0.3-1.4c0-1-0.3-1.8-0.9-2.3
		c-0.6-0.6-1.6-0.8-2.9-0.8H118.8z"/>
	<path d="M131.3,58h1.9V42.6h-1.9V40h6.4l6.4,17.5l6.5-17.5h6.1v2.6h-1.9V58h1.9v2.3h-6.6V58h2.2V42.4l-7.1,17.9H143l-7.2-18V58h2.1
		v2.3h-6.6V58z"/>
	<path d="M160.7,40h14.6v5.8h-2.7v-3.4h-7.3v6.5h6.1v2.3h-6.1V58h7.3v-3.4h2.7v5.7h-14.6V58h1.9V42.3h-1.9V40z"/>
	<path d="M190.5,40h6.6v2.3h-1.7v18h-3.4l-9.5-16.9V58h2.1v2.3H178V58h1.9V42.3h-1.9V40h5.5l9.3,16.7l0.1-0.6V42.3h-2.3V40z"/>
	<path d="M203.8,58h1.9V42.2h-4.6v3.2h-2.7V40h18.1v5.4h-2.7v-3.2h-5.4V58h2.1v2.3h-6.6V58z"/>
</g>
</svg>
